#N canvas 1369 391 587 281 12;
#X declare -path ofelia/abs;
#X obj 370 59 declare -path ofelia/abs;
#X msg 34 59 setPosition 30 100 \, setSize 1024 768 \, create;
#X obj 34 89 ofWindow;
#X obj 35 131 ofDraw;
#X obj 34 30 loadbang;
#X obj 35 159 ofelia f \; ofTranslate(ofGetWidth()/2 \, ofGetHeight()/2)
\; ofDrawCircle(0 \, 0 \, 64) \; ofTranslate(0 \, 0) \; ofDrawCircle(128
\, 128 \, 64) \;;
#X connect 1 0 2 0;
#X connect 3 0 5 0;
#X connect 4 0 1 0;
