#N canvas 1345 346 580 373 12;
#X declare -path ofelia/abs;
#X obj 371 56 declare -path ofelia/abs;
#X msg 30 56 setPosition 30 100 \, setSize 1024 768 \, create;
#X obj 30 86 ofWindow;
#X obj 33 262 ofDraw;
#X obj 30 27 loadbang;
#X obj 33 290 ofelia f \; ofSetColor(130 \, 255 \, 130 \, 60) \; ofDrawCircle(ofGetWidth()/2
\, ofGetHeight()/2 \, 128) \;;
#X obj 32 151 ofSetup;
#X obj 32 128 bng 15 250 50 0 empty empty empty 17 7 0 10 -262144 -1
-1;
#X obj 32 181 ofelia f \; ofSetBackgroundColor(100 \, 100 \, 160) \;
--ofBackground(100 \, 100 \, 160) \;;
#X text 296 210 not works correctly;
#X connect 1 0 2 0;
#X connect 3 0 5 0;
#X connect 4 0 1 0;
#X connect 6 0 8 0;
#X connect 7 0 6 0;
