#N canvas 1147 259 584 333 12;
#X declare -path ofelia/abs;
#X obj 372 58 declare -path ofelia/abs;
#X msg 34 58 setPosition 30 100 \, setSize 1024 768 \, create;
#X obj 34 88 ofWindow;
#X obj 34 219 ofDraw;
#X obj 34 29 loadbang;
#X obj 34 133 ofSetup;
#X obj 93 135 bng 15 250 50 0 empty empty empty 17 7 0 10 -262144 -1
-1;
#X obj 34 247 ofelia f \; ofSetColor(60) \; ofDrawBitmapString("Hello
world!" \, 300 \, 300) \;;
#X f 46;
#X obj 34 161 ofelia f \; ofSetBackgroundColor(150) \;;
#X connect 1 0 2 0;
#X connect 3 0 7 0;
#X connect 4 0 1 0;
#X connect 5 0 8 0;
#X connect 6 0 8 0;
