#N canvas 878 255 593 595 12;
#X declare -path ofelia/abs;
#X obj 367 59 declare -path ofelia/abs;
#X msg 34 59 setPosition 30 100 \, setSize 1024 768 \, create;
#X obj 34 89 ofWindow;
#X obj 31 470 ofDraw;
#X obj 34 30 loadbang;
#X obj 34 135 ofSetup;
#X obj 96 137 bng 15 250 50 0 empty empty empty 17 7 0 10 -262144 -1
-1;
#X obj 34 246 ofMouseMoved;
#X obj 34 274 ofelia f \; mousex = a[1] \; mousey = a[2] \;;
#X obj 33 349 ofMousePressed;
#X obj 33 376 ofelia f \; if a[3] == 0 then \; size = ofRandom(32 \,
256) \; end \;;
#X obj 31 498 ofelia f \; --[[ofDrawCircle(mousex \, mousey \, size)]]
\; ofDrawCircle(ofGetMouseX() \, ofGetMouseY() \, size) \;;
#X f 50;
#X obj 34 163 ofelia f \; mousex = 0 \; mousey = 0 \; size = 32 \;
;
#X connect 1 0 2 0;
#X connect 3 0 11 0;
#X connect 4 0 1 0;
#X connect 5 0 12 0;
#X connect 6 0 12 0;
#X connect 7 0 8 0;
#X connect 9 0 10 0;
