#N canvas 1422 273 590 273 12;
#X declare -path ofelia/abs;
#X obj 367 59 declare -path ofelia/abs;
#X msg 32 59 setPosition 30 100 \, setSize 1024 768 \, create;
#X obj 32 89 ofWindow;
#X obj 32 30 loadbang;
#X obj 32 135 ofKeyPressed;
#X obj 32 162 ofelia f \; if a == string.byte("f") then \; ofToggleFullscreen()
\; end \;;
#X connect 1 0 2 0;
#X connect 3 0 1 0;
#X connect 4 0 5 0;
