#N canvas 1206 169 579 594 12;
#X declare -path ofelia/abs;
#X obj 367 59 declare -path ofelia/abs;
#X msg 34 59 setPosition 30 100 \, setSize 1024 768 \, create;
#X obj 34 89 ofWindow;
#X obj 34 498 ofDraw;
#X obj 34 30 loadbang;
#X obj 34 136 ofSetup;
#X obj 94 138 bng 15 250 50 0 empty empty empty 17 7 0 10 -262144 -1
-1;
#X msg 34 164 dir 0 data/pixelPicture.png;
#X obj 34 191 pdcontrol;
#X obj 34 524 ofelia f \; fbo:draw(0 \, 0) \;;
#X obj 34 360 ofMouseDragged;
#X obj 34 220 ofelia f \; fbo = ofFbo() \; image = ofImage() \; image:load(a)
\; fbo:allocate(ofGetWidth() \, ofGetHeight()) \; fbo:beginFbo() \;
ofClear(255) \; fbo:endFbo() \;;
#X obj 34 387 ofelia f \; fbo:beginFbo() \; --[[ofSetColor(255) \;
ofDrawCircle(a[1] \, a[2] \, 16)]] \; image:draw(a[1]-50 \, a[2]-50
\, 100 \, 100) \; fbo:endFbo();
#X connect 1 0 2 0;
#X connect 3 0 9 0;
#X connect 4 0 1 0;
#X connect 5 0 7 0;
#X connect 6 0 7 0;
#X connect 7 0 8 0;
#X connect 8 0 11 0;
#X connect 10 0 12 0;
