#N canvas 1085 240 587 467 12;
#X declare -path ofelia/abs;
#X obj 368 59 declare -path ofelia/abs;
#X msg 34 59 setPosition 30 100 \, setSize 1024 768 \, create;
#X obj 34 89 ofWindow;
#X obj 33 301 ofDraw;
#X obj 34 30 loadbang;
#X obj 34 131 ofSetup;
#X obj 94 134 bng 15 250 50 0 empty empty empty 17 7 0 10 -262144 -1
-1;
#X obj 34 156 ofelia f \; AMOUNT = 12 \; speedx = ofTable() \; speedy
= ofTable() \; for i = 1 \, AMOUNT do \; speedx[i] = ofRandom(0.001
\, 0.9) \; speedy[i] = ofRandom(0.001 \, 0.9) \; end \;;
#X f 37;
#X obj 33 326 ofelia f \; local time = ofGetElapsedTimef() \; for i
= 1 \, AMOUNT do \; local x = ofGetWidth() * ofNoise(time * speedx[i])
\; local y = ofGetHeight() * ofNoise(time * speedy[i]) \; ofDrawCircle(x
\, y \, 32) \; end \;;
#X f 54;
#X connect 1 0 2 0;
#X connect 3 0 8 0;
#X connect 4 0 1 0;
#X connect 5 0 7 0;
#X connect 6 0 7 0;
