#N canvas 1167 220 717 415 12;
#X declare -path ofelia/abs;
#X obj 508 57 declare -path ofelia/abs;
#X obj 34 85 ofWindow;
#X obj 34 289 ofDraw;
#X obj 34 30 loadbang;
#X obj 34 133 ofSetup;
#X obj 94 134 bng 15 250 50 0 empty empty empty 17 7 0 10 -262144 -1
-1;
#X obj 34 188 pdcontrol;
#X obj 34 316 ofelia f \; shader:beginShader() \; ofDrawRectangle(0
\, 0 \, ofGetWidth() \, ofGetHeight()) \; shader:endShader() \;;
#X f 53;
#X msg 34 57 setGLVersion 3 2 \, setPosition 30 100 \, setSize 1024
768 \, create, f 64;
#X obj 34 217 ofelia f \; shader = ofShader() \; shader:load(a) \;
;
#X f 22;
#X msg 34 161 dir 0 data/shader1;
#X connect 2 0 7 0;
#X connect 3 0 8 0;
#X connect 4 0 10 0;
#X connect 5 0 10 0;
#X connect 6 0 9 0;
#X connect 8 0 1 0;
#X connect 10 0 6 0;
