#N canvas 1119 131 622 783 12;
#X declare -path ofelia/abs;
#X obj 398 56 declare -path ofelia/abs;
#X obj 34 86 ofWindow;
#X obj 33 354 ofDraw;
#X obj 34 27 loadbang;
#X obj 33 131 ofSetup;
#X obj 93 133 bng 15 250 50 0 empty empty empty 17 7 0 10 -262144 -1
-1;
#X msg 34 56 setPosition 30 100 \, setSize 1024 768 \, create, f 47
;
#X obj 341 156 hsl 128 15 1 30 0 1 \$0-amount empty empty -2 -8 0 10
-191407 -1 -1 4817 1;
#X text 285 155 Amount;
#X obj 341 186 hsl 128 15 0 3 0 1 \$0-powX empty X 5 8 0 10 -99865
-1 -1 593 1;
#X text 291 205 Power;
#X obj 341 206 hsl 128 15 0 3 0 1 \$0-powY empty Y 5 8 0 10 -99865
-1 -1 762 1;
#X obj 341 226 hsl 128 15 0 3 0 1 \$0-powZ empty Z 5 8 0 10 -99865
-1 -1 0 1;
#X obj 341 256 hsl 128 15 0 60 0 1 \$0-radius empty empty -2 -8 0 10
-191407 -1 -1 0 1;
#X text 285 255 Radius;
#X obj 341 286 hsl 128 15 -1 1 0 1 \$0-posX empty X 5 8 0 10 -99865
-1 -1 4762 1;
#X obj 341 306 hsl 128 15 -1 1 0 1 \$0-posY empty Y 5 8 0 10 -99865
-1 -1 4699 1;
#X text 271 296 Position;
#X obj 33 684 ofKeyPressed;
#X obj 33 713 ofelia f \; bHide = not bHide \;;
#X obj 33 162 ofelia f \; amount = 12 \; power = ofVec3f(0.14 \, 0.18
\, 0) \; radius = 0 \; position = ofVec2f(-260 \, -200) \; \; cam =
ofEasyCam() \; bHide = false \; \; ofSetLineWidth(3) \; ofSetCircleResolution(128)
\;;
#X text 174 713 bHide not needed in our case. But I do it for example.
, f 29;
#N canvas 1855 283 511 566 get 0;
#X obj 67 79 ofelia f \; amount = a \;;
#X obj 67 167 t b f;
#X obj 113 167 t b f;
#X obj 67 194 pack 0 0 0;
#X obj 67 320 ofelia f \; radius = a \;;
#X obj 67 423 t b f;
#X obj 67 450 pack 0 0;
#X obj 67 223 ofelia f \; power:set(a[1] \, a[2] \, a[3]) \;;
#X obj 67 479 ofelia f \; position:set(a[1]*ofGetWidth() \, a[2]*ofGetHeight())
\;;
#X f 53;
#X obj 67 48 r \$0-amount;
#X obj 67 139 r \$0-powX;
#X obj 141 139 r \$0-powY;
#X obj 215 139 r \$0-powZ;
#X obj 67 288 r \$0-radius;
#X obj 67 389 r \$0-posX;
#X obj 141 389 r \$0-posY;
#X connect 1 0 3 0;
#X connect 1 1 3 1;
#X connect 2 0 3 0;
#X connect 2 1 3 2;
#X connect 3 0 7 0;
#X connect 5 0 6 0;
#X connect 5 1 6 1;
#X connect 6 0 8 0;
#X connect 9 0 0 0;
#X connect 10 0 3 0;
#X connect 11 0 1 0;
#X connect 12 0 2 0;
#X connect 13 0 4 0;
#X connect 14 0 6 0;
#X connect 15 0 5 0;
#X restore 404 124 pd get ui;
#X obj 33 383 ofelia f \; ofPushMatrix() \; cam:beginCamera() \; ofTranslate(position:vec2())
\; local rad = radius \; for i = 0 \, amount-1 do \; local noisex =
ofNoise((ofGetElapsedTimef()+i) * power.x) \; local noisey = ofNoise((ofGetElapsedTimef()+i)
* power.y) \; local noisez = ofNoise((ofGetElapsedTimef()+i) * power.z)
\; local x = ofGetWidth() / 2 * noisex \; local y = ofGetHeight() /
2 * noisey \; local z = ofGetHeight() / 2 * noisez \; ofNoFill() \;
ofSetColor(255) \; ofDrawCircle(x \, y \, z \, rad) \; rad = rad +
i \; end \; cam:endCamera() \; ofPopMatrix() \;;
#X connect 2 0 23 0;
#X connect 3 0 6 0;
#X connect 4 0 20 0;
#X connect 5 0 20 0;
#X connect 6 0 1 0;
#X connect 18 0 19 0;
