#N canvas 2260 127 676 284 12;
#X declare -path ofelia/abs;
#X obj 398 56 declare -path ofelia/abs;
#X obj 34 86 ofWindow;
#X obj 34 130 ofDraw;
#X obj 34 27 loadbang;
#X msg 34 56 setPosition 30 100 \, setSize 1024 768 \, create, f 47
;
#X obj 34 159 ofelia f \; for i = 0 \, 199 do \; ofSetRectMode(OF_RECTMODE_CENTER)
\; ofDrawRectangle(ofGetWidth()/2 \, i * 4 \, math.sin(i + ofGetElapsedTimef())
* 128 \, 2) \; end \;;
#X f 85;
#X connect 2 0 5 0;
#X connect 3 0 4 0;
#X connect 4 0 1 0;
